<?xml version="1.0" encoding="UTF-8" standalone="no"?>
<svg xmlns="http://www.w3.org/2000/svg" class="card" face="2B" height="3.5in" preserveAspectRatio="none" viewBox="-120 -168 240 336" width="2.5in"><rect width="239" height="335" x="-119.5" y="-167.5" rx="12" ry="12" fill="white" stroke="black"></rect><rect width="216.095" height="313.967" x="-108.047" y="-156.983" fill="red"></rect><path d="M0,0v1h-1v-1v-1h-1h-1v-1h1v-1h-1h-1v1h-1v1h1v1v1h-1v-1h-1h-1v1h1v1v1h1v1h-1h-1v-1h-1v-1h-1v1v1v1h1v-1M-8,5h1h1v1h-1h-1h-1v1h1v1h1v1v1h1v1h-1h-1v-1h-1v-1h-1h-1v-1h-1h-1v1h-1v-1h-1v-1v-1h1v-1v-1h-1h-1v1h1M-16,5v1h-1v-1v-1v-1v-1h1v-1v-1h-1v1M-17,0v-1h1h1v1h1v-1h1h1v-1h1v-1h1v1v1v1h1h1v1h-1h-1h-1h-1h-1h-1h-1v1h1v1h-1h-1M-14,3h1v1v1h1h1h1v-1h-1v-1h-1v1M-12,3v-1h-1M-12,2h1h1v1M-10,5v1h-1v1h-1v-1h-1v1h-1M-11,7h1v1h1M-13,1v-1h1h1v-1M-8,0v-1h-1v-1v-1h1v1h1v-1v-1h-1v-1h-1h-1h-1h-1v-1v-1v-1h1v1h1v1h-1M-10,-6h1v-1h1v1h1v-1h1v-1h1v-1h1v-1v-1v-1v-1h1v1h1v1v1h-1v-1M-3,-10v1h1h1v1h1h1v-1v-1h-1h-1v-1v-1h1v1h1v-1h1v1h1v-1v-1h1h1h1v1h1v-1h1v-1v-1v-1v-1v-1h-1v-1h1v-1h1h1v1v1v1v1v1h1v-1h1v1h1h1v1h1h1v-1h1v1v1v1h-1v1h1v1v1h-1v-1h-1v1M15,-10v-1v-1h-1v-1h1h1M14,-13h-1h-1h-1h-1v-1h-1v1v1v1h1v1h1h1v-1h1v-1h-1h-1v1M11,-12h-1M13,-11h1v1h-1M12,-10v1M9,-12h-1M9,-14v-1v-1v-1v-1v-1M10,-14h1h1h1M16,-9v1h1v1h-1M17,-15v-1v-1h-1v-1h-1h-1v-1h-1v-1h1v-1v-1h1h1v-1h-1v-1h-1v1h-1v-1v-1h1h1h1v1h1v1v1v1v1v1v1M17,-19h-1v-1v-1h-1v1v1M17,-24v-1M13,-25h-1h-1v1v1v1h1h1v1h-1v1h-1v1v1h1h1v1h1v1h1h1M15,-16v1M14,-16h-1M14,-17h1M13,-17h-1h-1M12,-18v-1M11,-20v-1h-1v-1h-1v-1h-1v-1h-1v1h-1v-1h-1v-1h1h1h1h1v1h1v-1M10,-24v1M5,-25h-1h-1v1h1v1h1v1h-1h-1v1h-1v-1h-1h-1v-1v-1h-1v-1h-1v1h-1v-1h-1v1v1h1v1v1v1h-1v-1h-1v1v1v1h-1h-1v-1v-1h1v1M-6,-20v-1h-1h-1v1h-1h-1v1v1h1v1h1v-1v-1h-1M-8,-17v1v1v1h-1v-1h-1v-1v-1h-1h-1h-1v-1v-1v-1h1h1v-1h1v-1h-1h-1v1h-1h-1v-1h1v-1v-1h1v-1h1h1h1v1h-1v1h-1v-1M-11,-23h-1M-10,-23h1v1h1h1v-1h1h1v1h1M-5,-22h-1M-5,-23v-1h-1v-1h1M-6,-25h-1v1h-1v1M-8,-24v-1M-9,-22v1M-12,-25h-1h-1h-1h-1h-1v1h1h1h1v1h-1h-1h-1v1v1v1v1v1v1h1h1v1v1h-1h-1v1v1v1h1v1v1h-1v-1M-17,-10v1v1v1v1h1h1v1h-1h-1v1h1v1h-1v1h1h1h1v-1h1h1v-1h1h1h1M-12,-4h-1v-1h-1v1h-1v1M-14,-5v-1v-1v-1h-1v1h-1v-1v-1h1v-1h1h1v-1v-1h-1h-1v-1h-1v-1h1h1v1h1h1v-1h-1v-1h-1v-1h1h1h1v1h-1M-11,-15v1h1v1h-1v1h1v1h-1h-1v1v1h1v-1h1v1v1h1v-1v-1h1v-1h-1v-1v-1h1h1v-1v-1h1h1v-1h1h1h1h1h1h1v1h1v-1v-1h1h1v1v1h-1v-1M3,-15v1h1h1v-1h1v1h1v-1v-1v-1h-1v-1h-1v1v1h1M5,-18h-1h-1v-1v-1h1v1h1h1v-1v-1h1h1h1M8,-21v-1h-1h-1M7,-21v1M6,-21h-1h-1M5,-21v1M3,-20h-1h-1h-1v1v1h-1v1h-1v-1h-1v-1h1h1v-1v-1h1h1M-1,-21v-1v-1h-1v1v1v1M-3,-19h-1v1v1h-1h-1h-1v1h1M-4,-17h1M-1,-17h1h1v-1v-1h1v1M3,-14h-1h-1h-1v-1h-1h-1h-1h-1v1h1h1h1v1h1h1h1M-1,-13h-1M-4,-14h-1h-1v1v1h-1v1v1v1h1v-1h1v-1h-1M-5,-11v-1v-1M-7,-9v1h-1v-1M-7,-12h-1M-12,-9h-1v1v1v1M-13,-9h-1M-12,-11v-1M-14,-16v-1v-1h-1h-1v-1h1h1v-1h-1h-1v-1v-1h1v1M-15,-12v1h1M-13,-3v1M-17,-15v-1h1M-11,-20v1v1h-1v-1M-10,-16h1M-1,-25h1h1v1h1v1h1M2,-23h-1M2,-24v-1M12,-22v-1v-1M6,-12h-1v1h-1v1h1v1h1v1v1h1M6,-7h-1v1v1h-1v1h-1v-1v-1h1v-1h-1v-1h-1v1h-1v1h1v1h-1v1v1h-1h-1v-1h1v-1v-1h-1v1h-1h-1h-1v-1v-1h1h1v1h-1M-2,-7v-1h-1h-1M-4,-7h-1v1v1v1v1h-1v-1v-1h-1M-6,-5v-1M-6,-3v1v1h-1M-5,-4h1h1h1M-1,-6v-1h1M-1,-3v1h1h1h1h1v1v1h-1v-1M3,-2h1v-1h-1h-1v-1M4,-2h1M2,-8v-1v-1h1v1h1v1h1M4,-11v-1M0,-10v1M-9,9h1M-8,2h1" transform="scale(6.117)" fill="none" stroke="white" stroke-width="0.674" stroke-linecap="square" stroke-linejoin="miter"></path><path d="M0,0v1h-1v-1v-1h-1h-1v-1h1v-1h-1h-1v1h-1v1h1v1v1h-1v-1h-1h-1v1h1v1v1h1v1h-1h-1v-1h-1v-1h-1v1v1v1h1v-1M-8,5h1h1v1h-1h-1h-1v1h1v1h1v1v1h1v1h-1h-1v-1h-1v-1h-1h-1v-1h-1h-1v1h-1v-1h-1v-1v-1h1v-1v-1h-1h-1v1h1M-16,5v1h-1v-1v-1v-1v-1h1v-1v-1h-1v1M-17,0v-1h1h1v1h1v-1h1h1v-1h1v-1h1v1v1v1h1h1v1h-1h-1h-1h-1h-1h-1h-1v1h1v1h-1h-1M-14,3h1v1v1h1h1h1v-1h-1v-1h-1v1M-12,3v-1h-1M-12,2h1h1v1M-10,5v1h-1v1h-1v-1h-1v1h-1M-11,7h1v1h1M-13,1v-1h1h1v-1M-8,0v-1h-1v-1v-1h1v1h1v-1v-1h-1v-1h-1h-1h-1h-1v-1v-1v-1h1v1h1v1h-1M-10,-6h1v-1h1v1h1v-1h1v-1h1v-1h1v-1v-1v-1v-1h1v1h1v1v1h-1v-1M-3,-10v1h1h1v1h1h1v-1v-1h-1h-1v-1v-1h1v1h1v-1h1v1h1v-1v-1h1h1h1v1h1v-1h1v-1v-1v-1v-1v-1h-1v-1h1v-1h1h1v1v1v1v1v1h1v-1h1v1h1h1v1h1h1v-1h1v1v1v1h-1v1h1v1v1h-1v-1h-1v1M15,-10v-1v-1h-1v-1h1h1M14,-13h-1h-1h-1h-1v-1h-1v1v1v1h1v1h1h1v-1h1v-1h-1h-1v1M11,-12h-1M13,-11h1v1h-1M12,-10v1M9,-12h-1M9,-14v-1v-1v-1v-1v-1M10,-14h1h1h1M16,-9v1h1v1h-1M17,-15v-1v-1h-1v-1h-1h-1v-1h-1v-1h1v-1v-1h1h1v-1h-1v-1h-1v1h-1v-1v-1h1h1h1v1h1v1v1v1v1v1v1M17,-19h-1v-1v-1h-1v1v1M17,-24v-1M13,-25h-1h-1v1v1v1h1h1v1h-1v1h-1v1v1h1h1v1h1v1h1h1M15,-16v1M14,-16h-1M14,-17h1M13,-17h-1h-1M12,-18v-1M11,-20v-1h-1v-1h-1v-1h-1v-1h-1v1h-1v-1h-1v-1h1h1h1h1v1h1v-1M10,-24v1M5,-25h-1h-1v1h1v1h1v1h-1h-1v1h-1v-1h-1h-1v-1v-1h-1v-1h-1v1h-1v-1h-1v1v1h1v1v1v1h-1v-1h-1v1v1v1h-1h-1v-1v-1h1v1M-6,-20v-1h-1h-1v1h-1h-1v1v1h1v1h1v-1v-1h-1M-8,-17v1v1v1h-1v-1h-1v-1v-1h-1h-1h-1v-1v-1v-1h1h1v-1h1v-1h-1h-1v1h-1h-1v-1h1v-1v-1h1v-1h1h1h1v1h-1v1h-1v-1M-11,-23h-1M-10,-23h1v1h1h1v-1h1h1v1h1M-5,-22h-1M-5,-23v-1h-1v-1h1M-6,-25h-1v1h-1v1M-8,-24v-1M-9,-22v1M-12,-25h-1h-1h-1h-1h-1v1h1h1h1v1h-1h-1h-1v1v1v1v1v1v1h1h1v1v1h-1h-1v1v1v1h1v1v1h-1v-1M-17,-10v1v1v1v1h1h1v1h-1h-1v1h1v1h-1v1h1h1h1v-1h1h1v-1h1h1h1M-12,-4h-1v-1h-1v1h-1v1M-14,-5v-1v-1v-1h-1v1h-1v-1v-1h1v-1h1h1v-1v-1h-1h-1v-1h-1v-1h1h1v1h1h1v-1h-1v-1h-1v-1h1h1h1v1h-1M-11,-15v1h1v1h-1v1h1v1h-1h-1v1v1h1v-1h1v1v1h1v-1v-1h1v-1h-1v-1v-1h1h1v-1v-1h1h1v-1h1h1h1h1h1h1v1h1v-1v-1h1h1v1v1h-1v-1M3,-15v1h1h1v-1h1v1h1v-1v-1v-1h-1v-1h-1v1v1h1M5,-18h-1h-1v-1v-1h1v1h1h1v-1v-1h1h1h1M8,-21v-1h-1h-1M7,-21v1M6,-21h-1h-1M5,-21v1M3,-20h-1h-1h-1v1v1h-1v1h-1v-1h-1v-1h1h1v-1v-1h1h1M-1,-21v-1v-1h-1v1v1v1M-3,-19h-1v1v1h-1h-1h-1v1h1M-4,-17h1M-1,-17h1h1v-1v-1h1v1M3,-14h-1h-1h-1v-1h-1h-1h-1h-1v1h1h1h1v1h1h1h1M-1,-13h-1M-4,-14h-1h-1v1v1h-1v1v1v1h1v-1h1v-1h-1M-5,-11v-1v-1M-7,-9v1h-1v-1M-7,-12h-1M-12,-9h-1v1v1v1M-13,-9h-1M-12,-11v-1M-14,-16v-1v-1h-1h-1v-1h1h1v-1h-1h-1v-1v-1h1v1M-15,-12v1h1M-13,-3v1M-17,-15v-1h1M-11,-20v1v1h-1v-1M-10,-16h1M-1,-25h1h1v1h1v1h1M2,-23h-1M2,-24v-1M12,-22v-1v-1M6,-12h-1v1h-1v1h1v1h1v1v1h1M6,-7h-1v1v1h-1v1h-1v-1v-1h1v-1h-1v-1h-1v1h-1v1h1v1h-1v1v1h-1h-1v-1h1v-1v-1h-1v1h-1h-1h-1v-1v-1h1h1v1h-1M-2,-7v-1h-1h-1M-4,-7h-1v1v1v1v1h-1v-1v-1h-1M-6,-5v-1M-6,-3v1v1h-1M-5,-4h1h1h1M-1,-6v-1h1M-1,-3v1h1h1h1h1v1v1h-1v-1M3,-2h1v-1h-1h-1v-1M4,-2h1M2,-8v-1v-1h1v1h1v1h1M4,-11v-1M0,-10v1M-9,9h1M-8,2h1" transform="scale(6.117)rotate(180)" fill="none" stroke="white" stroke-width="0.674" stroke-linecap="square" stroke-linejoin="miter"></path></svg>